:SAMPLES-PER-SECOND 30
:FULLY-SPECIFIED
:DEGREES
185
root  35.00437098 36.49438873 -14.98421496 8.074621201 -8.16862011 4.503004074
lowerback  -7.443789482 -1.236889958 -1.104650378
upperback  -3.595510721 -1.125730038 -3.886409998
thorax  0.4047040045 -0.4085020125 -3.476989985
lowerneck  1.308930039 -19.90519905 -13.86470032
upperneck  11.60459995 -28.41289902 16.82509995
head  7.795330048 -13.42280006 4.690879822
lclavicle  0 -4.497500157e-015 -2.743230041e-014
lhumerus  -46.64670181 26.82089996 64.46890259
lradius  -0.03008533642 -6.507048965e-006 29.90909958
lwrist  4.824992743e-007 -3.790274832e-007 -28.25589943
lhand  -4.448129075e-031 -37.45370102 -10.60210037
lfingers  90 7.125020027 -90
lthumb  95.05933568 -25.41926486 101.6540681
rclavicle  0 -4.497500157e-015 -2.743230041e-014
rhumerus  -22.22719955 -40.73460007 -5.719500065
rradius  -5.16745672e-007 2.214343908e-008 40.01850128
rwrist  -7.499573258e-005 0.03438235447 -162.1710052
rhand  -1.771699018e-031 4.77011013 -7.722139835
rfingers  -90 -7.125020027 -90
rthumb  -85.08363194 -8.392975405 -59.48834758
rfemur  -13.15752792 17.23669624 11.47976303
rtibia  -1.703637242 -1.972511292 21.76324463
rfoot  0.2011074424 -23.00528526 -34.48471832
rtoes  3.849342975 19.64097082 -101.3197578
lfemur  -8.553040504 -17.4936676 -21.71401978
ltibia  2.06301403 -2.829938412 15.81099606
lfoot  1.172873855 -20.84350014 39.77570724
ltoes  -8.657150494 -18.0988119 -116.1099731
186
root  35.0069812 36.49369488 -14.98508754 8.059436798 -8.135313034 4.513834476
lowerback  -7.436979771 -1.217759967 -1.042649865
upperback  -3.595919609 -1.102460027 -3.918270111
thorax  0.3896180093 -0.3970380127 -3.543230057
lowerneck  1.294960022 -19.94330025 -13.90219975
upperneck  11.67840004 -28.4762001 16.83359909
head  7.839009762 -13.44769955 4.681620121
lclavicle  0 -4.497500157e-015 -2.743230041e-014
lhumerus  -46.6576004 26.72439957 64.46970367
lradius  -0.02938913181 -6.507048965e-006 29.91400146
lwrist  4.824992743e-007 -3.790274832e-007 -28.23269844
lhand  -4.448813043e-031 -37.46519852 -10.59790039
lfingers  90 7.125020027 -90
lthumb  95.06378439 -25.41475872 101.6659647
rclavicle  0 -4.497500157e-015 -2.743230041e-014
rhumerus  -22.41950035 -40.64410019 -5.628181458
rradius  -5.16745672e-007 2.214343908e-008 40.02600098
rwrist  -7.499573258e-005 0.03438235447 -162.1600037
rhand  -1.771966062e-031 4.872489929 -7.792300224
rfingers  -90 -7.125020027 -90
rthumb  -85.09620713 -8.339586016 -59.39396935
rfemur  -13.14436722 17.23020554 11.47925758
rtibia  -1.710216761 -1.956621647 21.77768135
rfoot  0.2038521022 -22.96599007 -34.48789978
rtoes  3.829649332 19.64467379 -101.2611729
lfemur  -8.473964691 -17.48671913 -21.75596046
ltibia  2.115999699 -2.788697481 15.72334385
lfoot  1.209386349 -20.90031815 39.84932327
ltoes  -8.670104453 -18.09277149 -116.1516784
187
root  35.00807755 36.49348462 -14.98553959 8.051722527 -8.108686447 4.517636776
lowerback  -7.455150127 -1.267529964 -1.163640141
upperback  -3.596123695 -1.16463995 -3.840159893
thorax  0.4138639867 -0.4276880026 -3.39873004
lowerneck  1.210729957 -19.90719986 -13.92129993
upperneck  11.72669983 -28.41629982 16.75259972
head  7.848859787 -13.42010021 4.660679817
lclavicle  0 -4.497500157e-015 -2.743230041e-014
lhumerus  -46.79079819 26.98489952 64.38110352
lradius  -0.02868362516 -6.507048965e-006 29.92756653
lwrist  4.824992743e-007 -3.790274832e-007 -28.37789917
lhand  -4.450575814e-031 -37.49480057 -10.6008997
lfingers  90 7.125020027 -90
lthumb  95.07830736 -25.41653987 101.6979284
rclavicle  0 -4.497500157e-015 -2.743230041e-014
rhumerus  -22.26600075 -40.76780319 -5.757549286
rradius  -5.16745672e-007 2.214343908e-008 39.99020004
rwrist  -7.499573258e-005 0.03438235447 -161.9470062
rhand  -1.772378997e-031 5.026649952 -7.755889893
rfingers  -90 -7.125020027 -90
rthumb  -85.04191836 -8.381552278 -59.24107898
rfemur  -13.14827061 17.22994995 11.48075581
rtibia  -1.717597246 -1.945345998 21.80328369
rfoot  0.185659498 -22.95102692 -34.51569748
rtoes  3.824484556 19.64564163 -101.2458104
lfemur  -8.426629066 -17.47077751 -21.77225494
ltibia  2.149897337 -2.755984306 15.66223431
lfoot  1.234859109 -20.93812752 39.90410233
ltoes  -8.686991686 -18.08487999 -116.2060672
188
root  35.00775915 36.49170042 -14.98582495 8.006548882 -8.061855316 4.526721954
lowerback  -7.483139992 -1.261729956 -1.143730164
upperback  -3.596107483 -1.156380057 -3.838999987
thorax  0.4195060134 -0.4232760072 -3.408639908
lowerneck  1.22183001 -19.89949989 -13.91009998
upperneck  11.69869995 -28.39949799 16.72520065
head  7.82889986 -13.41660023 4.656710148
lclavicle  0 -4.497500157e-015 -2.743230041e-014
lhumerus  -46.84809875 27.08379936 64.3117981
lradius  -0.0279103145 -6.507048965e-006 29.92634583
lwrist  4.824992743e-007 -3.790274832e-007 -28.49399948
lhand  -4.452806601e-031 -37.53219986 -10.61380005
lfingers  90 7.125020027 -90
lthumb  95.09865684 -25.42774042 101.7390503
rclavicle  0 -4.497500157e-015 -2.743230041e-014
rhumerus  -22.41640091 -40.6867981 -5.638620377
rradius  -5.16745672e-007 2.214343908e-008 40.00780106
rwrist  -7.499573258e-005 0.03438235447 -162.0140076
rhand  -1.7722015e-031 4.960979939 -7.817949772
rfingers  -90 -7.125020027 -90
rthumb  -85.08914758 -8.323590428 -59.3097431
rfemur  -13.08437061 17.21979904 11.49584961
rtibia  -1.717726231 -1.942077398 21.80480003
rfoot  0.1788320094 -22.96816063 -34.53915787
rtoes  3.837057134 19.64328323 -101.2832085
lfemur  -8.337085724 -17.52223206 -21.81339264
ltibia  2.18724966 -2.765720606 15.59922218
lfoot  1.217316151 -20.88684273 39.89311981
ltoes  -8.67546533 -18.09026841 -116.1689418
189
root  35.00783725 36.49160731 -14.98640316 7.995834827 -8.034977913 4.502564907
lowerback  -7.480690002 -1.241950035 -1.145419359
upperback  -3.595918417 -1.128119946 -3.85965991
thorax  0.4187095165 -0.4085539877 -3.426959991
lowerneck  1.224349976 -19.90069962 -13.90130043
upperneck  11.69250011 -28.39920235 16.7166996
head  7.823719978 -13.41720009 4.653900146
lclavicle  0 -4.497500157e-015 -2.743230041e-014
lhumerus  -46.86259842 27.11700058 64.28410339
lradius  -0.02708302811 -6.507048965e-006 29.91385078
lwrist  4.824992743e-007 -3.790274832e-007 -28.56999969
lhand  -4.451559408e-031 -37.51129913 -10.63269997
lfingers  90 7.125020027 -90
lthumb  95.09316353 -25.44705253 101.7186106
rclavicle  0 -4.497500157e-015 -2.743230041e-014
rhumerus  -22.68040085 -40.73720169 -5.487288952
rradius  -5.16745672e-007 2.214343908e-008 40.08560181
rwrist  -7.499573258e-005 0.03438235447 -161.9929962
rhand  -1.771825329e-031 4.818809986 -7.636109829
rfingers  -90 -7.125020027 -90
rthumb  -85.02823693 -8.470369444 -59.43449722
rfemur  -13.04687595 17.22414017 11.52734184
rtibia  -1.706805348 -1.925719857 21.76568222
rfoot  0.2048195899 -22.9422245 -34.53538132
rtoes  3.830539593 19.64450682 -101.263821
lfemur  -8.382434845 -17.54469109 -21.76708412
ltibia  2.131801605 -2.781874418 15.691185
lfoot  1.195402384 -20.8979435 39.82933807
ltoes  -8.658701613 -18.09808922 -116.1149662
